<?xml version="1.0" encoding="UTF-8"?>
<svg version="1.1" xmlns="http://www.w3.org/2000/svg" width="419" height="596">
<path d="M0 0 C0.88689514 -0.00133942 1.77379028 -0.00267883 2.68756104 -0.00405884 C16.05915085 0.00031205 29.09839208 0.61233423 42.31054688 2.83105469 C44.79163506 3.24650622 47.27595484 3.61650263 49.765625 3.9765625 C57.91193221 5.19164183 65.71282752 6.88458565 73.60546875 9.29296875 C76.55697932 10.1737484 79.49661887 10.88538918 82.5 11.5625 C91.18500631 13.69015215 99.48564176 17.03110444 107.8125 20.25 C108.92109375 20.67410156 110.0296875 21.09820313 111.171875 21.53515625 C118.19752286 24.33592127 124.78767849 27.7951122 131.41796875 31.41015625 C133.88627279 32.74798272 136.34763317 34.03231791 138.875 35.25 C149.17545316 40.355442 158.66368204 46.29594411 167.8125 53.25 C169.15401429 54.24995167 170.49653393 55.24855545 171.83984375 56.24609375 C173.26849767 57.30953521 174.69688369 58.37333667 176.125 59.4375 C177.13022705 60.18628418 177.13022705 60.18628418 178.15576172 60.95019531 C182.14144757 63.93871406 186.10387177 66.92085931 189.8125 70.25 C189.8125 70.91 189.8125 71.57 189.8125 72.25 C190.555 72.476875 191.2975 72.70375 192.0625 72.9375 C195.41128921 74.53578576 196.53679565 76.32409441 198.8125 79.25 C200.73692499 81.02420616 202.71367166 82.71937731 204.71484375 84.40625 C209.04084152 88.20861675 212.78121646 92.31870806 216.375 96.8125 C219.40084085 100.59837149 219.40084085 100.59837149 222.7265625 104.11328125 C225.67668198 107.13522012 228.11470457 110.48495401 230.625 113.875 C231.15689941 114.58994629 231.68879883 115.30489258 232.23681641 116.04150391 C238.53927755 124.54013184 244.52358214 133.07839421 249.8125 142.25 C250.15039551 142.83023926 250.48829102 143.41047852 250.83642578 144.00830078 C256.37184719 153.53568319 261.31087971 163.19519982 265.8125 173.25 C266.37904297 174.47783203 266.37904297 174.47783203 266.95703125 175.73046875 C298.49446109 244.71074357 298.89226683 327.58075571 272.8125 398.25 C272.5561377 398.94754395 272.29977539 399.64508789 272.03564453 400.36376953 C268.57458109 409.65707391 264.34930139 418.44580348 259.8125 427.25 C259.01917421 428.87419066 258.22736625 430.49912411 257.4375 432.125 C251.99160662 442.98095851 246.0403826 453.47777308 238.8125 463.25 C238.17570312 464.14074219 237.53890625 465.03148437 236.8828125 465.94921875 C232.90999206 471.49107139 228.78414317 476.87045379 224.4765625 482.15625 C222.68586202 484.34955522 222.68586202 484.34955522 220.8125 487.25 C220.1525 487.25 219.4925 487.25 218.8125 487.25 C218.54824219 487.83007812 218.28398437 488.41015625 218.01171875 489.0078125 C214.80421276 495.00490839 209.55414872 499.616626 204.36328125 503.88671875 C202.62672371 505.33357717 202.62672371 505.33357717 200.8125 507.75 C198.20101698 511.01435377 195.21473212 513.81145432 191.8125 516.25 C191.1525 516.25 190.4925 516.25 189.8125 516.25 C189.56894775 516.83773193 189.32539551 517.42546387 189.07446289 518.03100586 C187.58344202 520.65276805 186.01730845 521.92992193 183.62109375 523.75390625 C182.76733154 524.40673584 181.91356934 525.05956543 181.03393555 525.73217773 C180.11523682 526.41868408 179.19653809 527.10519043 178.25 527.8125 C177.30487549 528.52414307 176.35975098 529.23578613 175.38598633 529.96899414 C167.10891616 536.14145295 158.65044689 541.91334836 149.8125 547.25 C149.18134277 547.63172363 148.55018555 548.01344727 147.89990234 548.40673828 C131.14329211 558.42083868 113.30587746 566.9865562 94.8125 573.25 C94.12929687 573.49024902 93.44609375 573.73049805 92.7421875 573.97802734 C45.02298466 590.69059361 -12.9185149 594.68292373 -62.22998047 581.75732422 C-64.20059931 581.24660509 -66.17720277 580.77670864 -68.16015625 580.31640625 C-85.99551063 576.12462637 -103.84864221 570.62953524 -120.1875 562.25 C-120.1875 560.93 -120.1875 559.61 -120.1875 558.25 C-119.24132812 557.80011719 -118.29515625 557.35023438 -117.3203125 556.88671875 C-101.38054166 549.17984566 -86.25849926 540.00658294 -72.1875 529.25 C-71.08124268 528.40646973 -71.08124268 528.40646973 -69.95263672 527.54589844 C-64.31508064 523.20782628 -58.87886405 518.67542034 -53.56640625 513.9453125 C-51.10417766 511.77380488 -49.33949473 510.30066491 -46.1875 509.25 C-45.89875 508.651875 -45.61 508.05375 -45.3125 507.4375 C-43.82036323 504.53612296 -41.74104297 503.29283438 -39.1875 501.25 C-37.35343771 499.19020697 -35.58471428 497.08958936 -33.8359375 494.95703125 C-32.1875 493.25 -32.1875 493.25 -29.1875 492.25 C-28.50617549 490.58927151 -27.84007873 488.922233 -27.1875 487.25 C-26.1975 486.59 -25.2075 485.93 -24.1875 485.25 C-23.878125 484.63125 -23.56875 484.0125 -23.25 483.375 C-22.1875 481.25 -22.1875 481.25 -20.41015625 479.5390625 C-17.2286268 476.26247857 -14.86006944 472.48027755 -12.3671875 468.67578125 C-11.35482867 467.1675034 -10.27607113 465.70423016 -9.1875 464.25 C-8.5275 464.25 -7.8675 464.25 -7.1875 464.25 C-6.82398437 463.21939453 -6.82398437 463.21939453 -6.453125 462.16796875 C-4.95717683 458.71897714 -3.00858402 455.68297943 -0.9375 452.5625 C5.10466847 443.39398304 10.55933252 434.12640167 15.25 424.1875 C15.72373047 423.18887939 16.19746094 422.19025879 16.68554688 421.16137695 C22.18309615 409.473475 27.42533715 397.74291235 30.8125 385.25 C31.26828308 383.77004552 31.72675991 382.29091876 32.1875 380.8125 C32.73316677 378.95950659 33.27421756 377.10515197 33.8125 375.25 C34.18375 374.00734375 34.555 372.7646875 34.9375 371.484375 C37.9004268 361.17414282 39.87332367 350.76884692 41.5625 340.1875 C41.66923035 339.52150787 41.77596069 338.85551575 41.88592529 338.16934204 C42.56942486 333.86841073 43.20754791 329.56264184 43.8125 325.25 C43.98700684 324.02941895 43.98700684 324.02941895 44.16503906 322.78417969 C45.2579359 313.79422184 45.05560024 304.66662987 45.0625 295.625 C45.06350708 294.7106015 45.06451416 293.796203 45.06555176 292.85409546 C45.05482601 278.43948062 44.29148129 264.47234396 41.8125 250.25 C41.49580057 248.30343309 41.17940022 246.35681751 40.86328125 244.41015625 C39.32054426 235.21602828 37.50056457 226.23374583 34.7421875 217.3203125 C34.04074084 215.00377016 33.41791565 212.71526793 32.84375 210.3671875 C30.64278762 201.41632308 28.20259506 192.1797388 23.76171875 184.0703125 C22.68800643 182.01125925 21.88333066 179.9221545 21.0625 177.75 C11.94424377 154.47162822 -1.7346089 132.30013589 -17.19140625 112.73828125 C-18.1875 111.25 -18.1875 111.25 -18.1875 109.25 C-19.1465625 108.87875 -19.1465625 108.87875 -20.125 108.5 C-22.731801 106.92012061 -22.47945078 106.08219689 -23.1875 103.25 C-23.79207031 102.9509375 -24.39664063 102.651875 -25.01953125 102.34375 C-27.4640109 101.11049901 -28.63382944 99.84800304 -30.375 97.75 C-30.97828125 97.03972656 -31.5815625 96.32945313 -32.203125 95.59765625 C-32.85796875 94.82292969 -33.5128125 94.04820313 -34.1875 93.25 C-39.52638455 87.09491907 -44.95466935 81.48767281 -51.1875 76.25 C-52.17105469 75.37859375 -53.15460938 74.5071875 -54.16796875 73.609375 C-63.37084469 65.48136674 -73.08859331 58.22598896 -83.1875 51.25 C-83.80093262 50.82589844 -84.41436523 50.40179688 -85.04638672 49.96484375 C-96.175778 42.35478889 -108.13947596 36.25717106 -120.1875 30.25 C-120.1875 28.93 -120.1875 27.61 -120.1875 26.25 C-112.51259831 22.09276158 -104.38733735 19.17947508 -96.1875 16.25 C-95.54828613 16.02135254 -94.90907227 15.79270508 -94.25048828 15.55712891 C-84.68066686 12.16911751 -75.04990166 9.60014566 -65.1875 7.25 C-63.98609375 6.92515625 -62.7846875 6.6003125 -61.546875 6.265625 C-55.73450232 4.8088317 -49.79908549 4.04497633 -43.875 3.1875 C-42.71548828 3.01412109 -41.55597656 2.84074219 -40.36132812 2.66210938 C-26.84255525 0.67874809 -13.64515221 0.01217837 0 0 Z " fill="#4C4C4C" transform="translate(126.1875,5.75)"/>
<path d="M0 0 C0.66 0.33 1.32 0.66 2 1 C0.35481777 3.33789054 -1.29216407 5.27678701 -3.375 7.25 C-5.56118644 9.54029055 -6.91988014 11.38424653 -8.5 14.0625 C-10.56645528 17.50875144 -12.66062485 19.6881249 -16 22 C-16.680625 22.556875 -17.36125 23.11375 -18.0625 23.6875 C-20 25 -20 25 -22 25.3125 C-24.3707866 25.89277438 -24.3707866 25.89277438 -25.875 29 C-28 32 -28 32 -31.25 32.875 C-32.61125 32.936875 -32.61125 32.936875 -34 33 C-30.34854108 29.30804431 -26.6227592 25.7151689 -22.8125 22.1875 C-22.27947266 21.68541016 -21.74644531 21.18332031 -21.19726562 20.66601562 C-17.23198342 17 -17.23198342 17 -15 17 C-14.773125 16.4225 -14.54625 15.845 -14.3125 15.25 C-12.65273655 12.40469122 -10.57933333 11.06346666 -8 9 C-5.59060277 6.39703597 -3.29879277 3.70046355 -1 1 C-0.67 0.67 -0.34 0.34 0 0 Z " fill="#6E6E6E" transform="translate(95,498)"/>
<path d="M0 0 C0.66 0.33 1.32 0.66 2 1 C1.3503125 1.5878125 1.3503125 1.5878125 0.6875 2.1875 C-1.14872517 3.98883092 -1.14872517 3.98883092 -2.3125 6.625 C-4 9 -4 9 -7.1875 9.8125 C-8.115625 9.874375 -9.04375 9.93625 -10 10 C-6.66666667 6.66666667 -3.33333333 3.33333333 0 0 Z " fill="#A7A7A7" transform="translate(71,521)"/>
<path d="M0 0 C-4 2 -8 4 -12 6 C-12 6.66 -12 7.32 -12 8 C-12.66 8 -13.32 8 -14 8 C-14 6.68 -14 5.36 -14 4 C-12.75264433 3.3490741 -11.50198168 2.70448331 -10.25 2.0625 C-9.55390625 1.70285156 -8.8578125 1.34320312 -8.140625 0.97265625 C-2.85659656 -1.42829828 -2.85659656 -1.42829828 0 0 Z " fill="#B6B6B6" transform="translate(20,28)"/>
<path d="M0 0 C0.66 0.33 1.32 0.66 2 1 C-1.22129633 5.57763162 -4.71336455 9.84618556 -10 12 C-7.35985889 7.79533082 -4.63360138 4.4371905 -1 1 C-0.67 0.67 -0.34 0.34 0 0 Z " fill="#A9A9A9" transform="translate(95,498)"/>
<path d="M0 0 C0.66 0.33 1.32 0.66 2 1 C0.7934375 1.86625 0.7934375 1.86625 -0.4375 2.75 C-2.97866739 4.98126893 -3.65120368 5.74456771 -4 9 C-6.31 9 -8.62 9 -11 9 C-9.61299727 6.22599454 -7.65738286 5.57027169 -5 4 C-3.31522656 2.68962066 -1.64351457 1.36176922 0 0 Z " fill="#A6A6A6" transform="translate(51,537)"/>
<path d="M0 0 C1.32 0 2.64 0 4 0 C3.67 1.32 3.34 2.64 3 4 C1.02 4.33 -0.96 4.66 -3 5 C-1.125 1.125 -1.125 1.125 0 0 Z " fill="#848484" transform="translate(83,510)"/>
<path d="M0 0 C0 0.66 0 1.32 0 2 C-1.75 3.5078125 -1.75 3.5078125 -4 5.125 C-4.7425 5.66382813 -5.485 6.20265625 -6.25 6.7578125 C-6.8275 7.16773438 -7.405 7.57765625 -8 8 C-8.66 7.67 -9.32 7.34 -10 7 C-8.71372289 5.82739389 -7.42080217 4.6620717 -6.125 3.5 C-5.04605469 2.52546875 -5.04605469 2.52546875 -3.9453125 1.53125 C-2 0 -2 0 0 0 Z " fill="#414141" transform="translate(103,495)"/>
<path d="M0 0 C0.66 0.33 1.32 0.66 2 1 C0.54735962 1.8638129 -0.9123163 2.71580454 -2.375 3.5625 C-3.59316406 4.27599609 -3.59316406 4.27599609 -4.8359375 5.00390625 C-5.55007813 5.33261719 -6.26421875 5.66132812 -7 6 C-7.66 5.67 -8.32 5.34 -9 5 C-7 2 -7 2 -4.5 1.375 C-3.2625 1.189375 -3.2625 1.189375 -2 1 C-1.34 0.67 -0.68 0.34 0 0 Z " fill="#B1B1B1" transform="translate(274,552)"/>
<path d="M0 0 C1.46726798 3.81489674 0.43336419 6.29011622 -1 10 C-1.33 10 -1.66 10 -2 10 C-2 7.36 -2 4.72 -2 2 C-1.34 2 -0.68 2 0 2 C0 1.34 0 0.68 0 0 Z " fill="#BABABA" transform="translate(401,392)"/>
<path d="M0 0 C3.16115776 1.36983503 3.9927092 1.9890638 6 5 C4.35 4.67 2.7 4.34 1 4 C0.67 2.68 0.34 1.36 0 0 Z " fill="#797979" transform="translate(49,58)"/>
</svg>
